<svg width="132.1" height="155" preserveAspectRatio="xMinYMid" version="1.1" xmlns="http://www.w3.org/2000/svg" xmlns:xlink="http://www.w3.org/1999/xlink" viewBox="0 0 132.1 155">
<style type="text/css">
	.st0{fill:#FFFFFF;}
	.st1{fill:#11274a;}
	.st2{fill:#a51d36;}
	.st3{fill-rule:evenodd;clip-rule:evenodd;fill:#FFFFFF;}
</style>
<g id="Layer_1">
	<path class="st0" d="M65.9,0.6c-9.3,0-19,1.3-29.6,3.8c-8.9,2.2-16.5,4.8-22.7,6.9c-3.8,1.3-7.1,2.4-9.1,2.9l-4.2,0.9v4.3
		c0,24.3,0.2,41.4,2.5,57C4.1,84.8,6,92.3,8.5,99.1c2.7,7.3,6.2,14,10.7,20.4C35,141.8,57.7,150.8,64.3,153l1.7,0.6l1.7-0.6
		c6.6-2.2,29.2-11.1,45.1-33.5c4.5-6.4,8-13,10.7-20.4c2.5-6.8,4.3-14.2,5.6-22.7c2.3-15.5,2.4-33.4,2.5-57v-4.3l-4.2-0.9
		c-2-0.4-5.3-1.6-9.1-2.9c-6.1-2.1-13.8-4.7-22.7-6.9C84.9,1.9,75.2,0.6,65.9,0.6L65.9,0.6z"/>
	<path class="st1" d="M65.9,6C57.2,6,48.1,7.2,38,9.6c-8.4,2-15.7,4.5-21.6,6.5c-3.9,1.3-7,2.4-9,2.8l-2,0.4v2
		c0,23.3,0.2,39.7,2.3,54.6c1.2,8,2.9,15,5.2,21.4c2.5,6.9,5.8,13.1,10,19c6.4,9,14.6,16.7,24.6,22.9c8,5,14.9,7.6,17.5,8.4l0.8,0.3
		l0.8-0.3c2.6-0.9,9.5-3.4,17.5-8.4c9.9-6.2,18.2-13.9,24.6-22.9c4.2-6,7.5-12.2,10-19C121.2,91,123,84,124.1,76
		c2.2-14.8,2.3-31.2,2.3-54.6v-2l-2-0.4c-2-0.4-5.1-1.5-9-2.8c-5.9-2-13.2-4.5-21.6-6.5C83.8,7.2,74.7,6,65.9,6L65.9,6z"/>
	<path class="st2" d="M65.9,145.3c-5.4-1.8-26.4-9.9-40.9-30.4C8.3,91.4,7.9,64.7,7.9,21.4c8.5-1.9,32-12.9,58-12.9
		s49.5,11.1,58,12.9c0,43.3-0.4,70-17.1,93.5C92.3,135.4,71.3,143.5,65.9,145.3z"/>
	<path class="st0" d="M59.9,138.2c0,0.1-0.1,0.2-0.2,0.2h-1.1c-0.1,0-0.2-0.1-0.2-0.2v-4l-0.7,0.3c-0.1,0-0.2,0-0.2-0.1l-0.4-0.6
		c0-0.1,0-0.2,0-0.2l1.8-1.3c0.1-0.1,0.2-0.1,0.3-0.1h0.4c0.1,0,0.2,0.1,0.2,0.2v5.8H59.9z"/>
	<path class="st0" d="M64.5,135.2c0.5,0.3,0.7,0.9,0.7,1.3c0,0.7-0.4,1.9-2,1.9c-1.7,0-2-1.2-2-1.9c0-0.4,0.3-1.1,0.7-1.3
		c-0.4-0.2-0.7-0.7-0.7-1.3c0-0.7,0.4-1.8,2.1-1.8s2.1,1.2,2,1.8C65.2,134.3,65,134.9,64.5,135.2z M63.8,134c0-0.4-0.3-0.6-0.7-0.6
		s-0.7,0.2-0.7,0.6c0,0.4,0.4,0.6,0.7,0.6C63.5,134.6,63.8,134.4,63.8,134z M63.8,136.5c0-0.4-0.3-0.6-0.7-0.6s-0.7,0.2-0.7,0.6
		s0.4,0.6,0.7,0.6C63.5,137.1,63.8,136.9,63.8,136.5z"/>
	<path class="st0" d="M65.8,132.3c0-0.1,0.1-0.2,0.2-0.2h3.5c0.1,0,0.2,0.1,0.2,0.2v0.2c0,0.1,0,0.2-0.1,0.3l-2.1,5.3
		c0,0.1-0.1,0.2-0.2,0.2h-1.1c-0.1,0-0.1-0.1-0.1-0.2l1.9-4.7h-2c-0.1,0-0.2-0.1-0.2-0.2C65.8,133.2,65.8,132.3,65.8,132.3z"/>
	<path class="st0" d="M74.9,135.2c0,1.3-0.6,3.2-2.4,3.2s-2.4-1.9-2.4-3.2c0-1.2,0.6-3.1,2.4-3.1C74.3,132.1,74.9,134,74.9,135.2z
		 M73.5,135.2c0-0.4-0.1-1.8-1-1.8s-1,1.4-1,1.8s0.1,1.9,1,1.9C73.4,137.1,73.5,135.7,73.5,135.2z"/>
	<path class="st0" d="M15.6,33.8c-0.1,0.1-0.3,0-0.4-0.2l-3.3-9.8c-0.1-0.1,0-0.3,0.2-0.4l1.8-0.6c0.1-0.1,0.3,0,0.4,0.2l1.2,3.7
		l2-4.8c0.1-0.2,0.2-0.3,0.4-0.4l2.4-0.8c0.1,0,0.2,0.1,0.2,0.2l-2.7,6.3l6.4,3.6c0.1,0.1,0.1,0.2,0,0.2l-2.4,0.8
		c-0.2,0.1-0.4,0-0.5,0l-5-2.8l1.4,4c0.1,0.1,0,0.3-0.2,0.4L15.6,33.8z"/>
	<path class="st0" d="M26.2,25.8l0.6,1.8l4.6-1.4c0.1,0,0.3,0,0.4,0.2l0.5,1.7c0,0.1,0,0.3-0.2,0.4l-6.7,2.1c-0.1,0-0.3,0-0.4-0.2
		l-3.1-9.9c0-0.1,0-0.3,0.2-0.4l6.7-2.1c0.1,0,0.3,0,0.4,0.2l0.5,1.7c0,0.1,0,0.3-0.2,0.4l-4.6,1.4l0.6,2l3.5-1.1
		c0.1,0,0.3,0,0.4,0.2l0.5,1.7c0,0.1,0,0.3-0.2,0.4L26.2,25.8z"/>
	<path class="st0" d="M33.7,28c-0.2,0-0.3-0.1-0.3-0.2l-2.6-10.3c0-0.1,0-0.3,0.2-0.3s0.3,0,0.4,0.1l7.1,3.9l-1.3-5.1
		c0-0.2,0.1-0.3,0.2-0.3l1.9-0.5c0.2,0,0.3,0.1,0.3,0.2l2.6,10.2c0,0.1,0,0.2-0.1,0.2s-0.3,0-0.4-0.1l-7.2-4l1.3,5.3
		c0,0.2-0.1,0.3-0.2,0.3L33.7,28z"/>
	<path class="st0" d="M44.2,16.7l-2.5,0.5c-0.2,0-0.3-0.1-0.3-0.2L41,15.2c0-0.2,0.1-0.3,0.2-0.3l7.6-1.4c0.2,0,0.3,0.1,0.3,0.2
		l0.3,1.7c0,0.2-0.1,0.3-0.2,0.3l-2.6,0.5l1.5,8.2c0,0.2-0.1,0.3-0.2,0.3L46,25.1c-0.2,0-0.3-0.1-0.3-0.2L44.2,16.7z"/>
	<path class="st0" d="M64.6,15.5c-0.1,0.1-0.3,0.1-0.4,0c-0.7-0.6-1.8-1.1-2.6-1.1c-2.5,0.1-2.8,2.6-2.7,3.4s0.5,3.2,3.1,3.1
		c0.9,0,1.9-0.6,2.6-1.2c0.1-0.1,0.3-0.1,0.4,0l1.1,1.2c0.1,0.1,0.1,0.3,0,0.4c-1.1,1.1-2.4,1.9-4,2c-4.2,0.2-5.6-3-5.7-5.3
		c-0.1-2.3,1-5.7,5.1-5.9c1.8-0.1,3.1,0.6,4.3,1.8c0.1,0.1,0.1,0.3,0,0.4L64.6,15.5z"/>
	<path class="st0" d="M73.8,19.2l1.6,3.9c0.1,0.1,0,0.2-0.2,0.2L73,23.2c-0.2,0-0.3-0.1-0.4-0.3l-1.4-3.5l-1.1-0.1L70,22.8
		c0,0.2-0.1,0.3-0.3,0.3L67.8,23c-0.2,0-0.3-0.1-0.3-0.3L68,12.3c0-0.2,0.1-0.3,0.3-0.3l3.9,0.2c3,0.2,3.8,2.3,3.8,3.8
		C75.9,17.6,75,18.7,73.8,19.2z M73.5,16c0-0.5-0.2-1.3-1.3-1.4l-1.8-0.1l-0.1,2.6l1.8,0.1C73.2,17.2,73.5,16.4,73.5,16z"/>
	<path class="st0" d="M79.3,23.6c0,0.2-0.2,0.3-0.3,0.2l-1.9-0.2c-0.2,0-0.3-0.2-0.2-0.3L78,13c0-0.2,0.2-0.3,0.3-0.2l1.9,0.2
		c0.2,0,0.3,0.2,0.2,0.3L79.3,23.6z"/>
	<path class="st0" d="M89.8,18c-0.1,0.1-0.3,0-0.4-0.1c-0.5-0.8-1.5-1.5-2.3-1.7c-2.5-0.4-3.3,1.9-3.4,2.7c-0.1,0.8-0.2,3.2,2.3,3.7
		c0.9,0.2,2-0.2,2.8-0.6c0.1-0.1,0.3,0,0.4,0.1l0.8,1.4c0.1,0.1,0,0.3-0.1,0.4c-1.3,0.9-2.7,1.3-4.4,1c-4.1-0.7-4.8-4.2-4.4-6.5
		c0.4-2.2,2.2-5.3,6.3-4.6c1.8,0.3,2.9,1.3,3.8,2.7c0.1,0.1,0,0.3-0.1,0.4L89.8,18z"/>
	<path class="st0" d="M91.3,26c-0.2,0-0.2-0.2-0.2-0.3l2.5-10.1c0-0.2,0.2-0.2,0.3-0.2l1.9,0.5c0.2,0,0.2,0.2,0.2,0.3L95.2,20l4.3-3
		c0.2-0.1,0.3-0.1,0.5-0.1l2.5,0.6c0.1,0,0.1,0.2,0,0.2l-5.7,3.8l3.5,6.5c0,0.1,0,0.2-0.1,0.2l-2.5-0.6c-0.2,0-0.3-0.2-0.4-0.3
		l-2.6-5.1l-1,4.1c0,0.2-0.2,0.2-0.3,0.2L91.3,26z"/>
	<path class="st0" d="M104.6,25.2L104,27l4.6,1.4c0.1,0,0.2,0.2,0.2,0.4l-0.5,1.7c0,0.1-0.2,0.2-0.4,0.2l-6.7-2.1
		c-0.1,0-0.2-0.2-0.2-0.4l3-9.9c0-0.1,0.2-0.2,0.4-0.2l6.7,2.1c0.1,0,0.2,0.2,0.2,0.4l-0.5,1.7c0,0.1-0.2,0.2-0.4,0.2l-4.6-1.4
		l-0.6,2l3.5,1.1c0.1,0,0.2,0.2,0.2,0.4l-0.5,1.7c0,0.1-0.2,0.2-0.4,0.2L104.6,25.2z"/>
	<path class="st0" d="M114.4,23.8L112,23c-0.1-0.1-0.2-0.2-0.2-0.4l0.6-1.7c0.1-0.1,0.2-0.2,0.4-0.2l7.3,2.5
		c0.1,0.1,0.2,0.2,0.2,0.4l-0.6,1.7c-0.1,0.1-0.2,0.2-0.4,0.2l-2.5-0.8l-2.7,7.9c-0.1,0.1-0.2,0.2-0.4,0.2l-1.8-0.6
		c-0.1-0.1-0.2-0.2-0.2-0.4L114.4,23.8z"/>
	<path class="st0" d="M54.4,48.3c-0.3-0.4-0.2-0.3,0.2-0.7c0.4-0.5,0.2-0.2,0.7-0.1c0.5,0.1,0.6,0.4,0.4,0.7
		C55.4,48.4,54.9,48.5,54.4,48.3"/>
	<path class="st0" d="M84.8,98.7c1.4-4.8,0.7-4.1-0.8-7.3c-1.5-3.2-1.7-4.1-3.7-6c0,0-0.6-1.2-4-4c-2.1-1.8-3.2-3.2-4.2-5.6
		c-0.7-1.7-0.6-3.6-0.6-3.6s-3.4,0.2-4.1,0.7c-0.9,0.7-3.4,3.5-6.1,3.4c-4.6-0.3-5.1-2.6-5.1-2.6s6,1.5,7.3-2.4
		c0.3-1-1.4-0.6-3.4,0.6c-0.8,0.5,0.1-2.4,3.3-2.5c4.3-0.2,2.3-0.8,0.3-1.3c-2.2-0.5-4.8,0.6-4.8,0.6s0.8-1.1,3.1-2.4
		c3.3-1.9,5.9,0.2,7.2,0.1c3.3-0.3,4.7-2.7,4.7-2.7s-2.1,1.4-4.2,1.4c-3.4,0.1-2.6-2.4-5.2-2.7c-2-0.3-3.4,1.9-3.4,1.9
		s-0.7-3.3,2.3-4.2c2.1-0.6,1.1-2.4,3.1-2.4c4.1,0,2.5,2.4,4.9,2.8c2.4,0.4,3.8-0.6,5.2-1.9c1.9-2,5.8-11.5,3.1-17.6
		c-2.4-6.6-5.2-7.4-7.1-7.8c-0.6-0.1-1.1-1.6-1.1-1.6s-0.3-1.8-0.9-3.1C69.8,26.6,69,27,69,27s-0.1,0.5,0,1.7s0,2.2,0,2.2
		s-0.7,1.4-1.2,0.9s-0.5-1.1-0.5-1.1s-0.7,0.2-2.6,1.9c-1.9,1.7-2.6,1.9-3.2,3.9c-1,1.7-2.1,3.4-4.2,5.1c-2.1,1.7-3.7,2.2-4.3,2.7
		c-0.9,0.6-0.2,0.7,0,1.3s0.1,1.3,1.8,0.9c1.2,0,1.4,0.5,1.8,0.7c1.4,0.9-0.8,2.6,0,2.7c1.8,0.3,1.4-2.2,2-2.7s1-0.6,2-0.9
		c1-0.3,1.5-0.4,2.1-0.1c0.6,0.3,3.3,1.5,5.3,0.6c4.8-0.9,6.2-7.6,6.2-7.6s0.8,6.1-6.1,10c-1.9,1.4-2.4,1.8-3.3,2.1s-2-0.3-4,0.8
		s-2.3,1.7-3.3,2.4s-2.5,0.6-3.1,1.3s-2.3,1.3-3.1,2.9c-0.8,1.6-1.2,3.1-1.3,4.4c-0.1,1.3-0.1,2.7-0.1,2.7s1,0,2,0
		c0.9,0,2.2,0.1,2.2,0.1s0.2-0.6,1.6-2.2c1.1-1.2,2.3-2.1,2.5-1.7c0.3,0.4-0.6,0.4-1.6,1.7c-1.3,1.7-1.2,3.5-1.2,3.5
		s-3.7-0.2-6.5-0.1c-2.7,0.1-2.4-0.2-3.4,0s-5.6,1.3-6.5,1.4s-2.2-0.3-3.2,0.6s-0.6,2.7-0.6,3.4c0,0.6,0.3,6.6,0,7.2
		c-0.2,0.6-0.7,1.9-0.4,2.6s0.6,0.9,1,2s2.2-0.7,2.8-1.7c0.2-0.3,0.7-0.8,0-1.2c0-0.1-0.1,0.1-0.5-1.2c-0.7-1.9-0.7-1.6-0.5-3.5
		s-0.1-2.8,0.2-3.2c0.3-0.4,0-0.4,0.4-0.7c0.4-0.3,1.2-1.2,1.8-1.3c0.6-0.1,3.3,0.4,5.5,0.3s5.2-0.1,7.7-0.3c4.3-0.4,5-1.7,5.4-1.4
		c0.3,0.2,0.8,1.8-1.9,2.5s-4.4,0.2-4.4,0.2s1.8,3,3.1,5.5s1.8,5,3.3,7c0.7,1.8-0.1,4,4,6.5c1.5,0.9,2.7,4.5,2.7,4.5
		c0.4,0.3,0,0.8,1.2,0.6c1.1-0.2,1.8,0.2,1.8,0.2s-0.2-0.6,0.5-3.2s2.5-5.9,2.5-5.9s-1.4,3.6-1.3,8.2c0.1,4.5,0.5,6.3,1.8,9
		c1.4,2.7,1.5,2.3,4.6,5.2c3.1,2.9,3.5,3.3,3.8,5.9c0.2,2.6,0.3,2.7,0,5.6c-0.3,2.7-0.1,3.9-1.1,6.2c-0.3,0.7-0.9,1.6-0.1,1.8
		s0.8-0.5,1.7-1.3c0.9-0.8,2.1-0.2,2.1-2.6s-0.7-1.7-0.2-5.5c0.5-3.9,1.8-5.3,1.5-6.6c-0.3-1.2-1.6-1-2-3c-0.5-2.1-0.6-5.7-1.6-6.8
		C79.5,103,82.9,105.1,84.8,98.7z M55.8,45.6c0-0.3,0.1-0.5,0.1-0.8c-0.3,0-0.5,0.1-0.7,0.1h-0.6c0-0.6,0.7-1,1.3-1
		c0.5,0,1.2,0.2,1.2,0.7C57,45.3,56.4,45.5,55.8,45.6z M67.6,37.8c-0.5,0.2-2.5,0.5-2.9,0.4s-0.9-0.4-0.9-0.6c0-0.1,0.6-0.3,0.8-0.7
		c0.4-0.6,0.9-0.2,1.2-0.1c0.1,0,0.2,0.1,0.3,0.1c-0.1,0-0.2,0-0.3-0.1c-0.3-0.1-0.6-0.2-0.7,0.2s0.7,0.6,1.1,0.5s1.2-0.7,1.2-1.1
		c0-0.3-2.9-0.3-2.4-0.6c0.9,0,2.9-0.2,2.9-0.2S70,36.8,67.6,37.8z M66.1,37L66.1,37L66.1,37z"/>
	<path class="st0" d="M79.1,36.6c0,0,3.3,3.5,2.9,10.4s-3.9,12.3-3.9,12.3s5-4.8,4.8-12.7C82.6,38.7,79.1,36.6,79.1,36.6"/>
	<path class="st3" d="M100.3,87.6c0,0,0.4-3.5-1.7-4.1c-2-0.7-3.6-0.9-4.3,0.8c-0.7,1.7-1.3,4.8-2,6.2c-0.7,1.4-2.1,2.5-3,2.5
		s-2.9-0.1-2.9-0.1L86,91.6c0,0,2.2,0.9,3.4,0.3c1.1-0.6,2.1-1.1,2.7-3.5s0.1-6.3,1-8.5c0.9-2.3,2.9-4.7,5.3-4.4
		c2.4,0.2,3.5,0.4,4.8,2.6c1.1,2,1.7,4.9-0.4,9.9c-1.3,3.2-2.5,4.4-3.5,7.9c-1.1,3.9,1.8,4.3,3,7.4s0.2,2.9,0,5.1
		c-0.2,2.1,0.5,5.1,0.5,5.1l-1.5-1.5c0,0,0.7-4,0.4-5.6c-0.3-1.6-3.2-4.3-3.2-4.3s2.2,3.2,2.1,5.8c-0.1,3.4-1.5,6.4-1.5,6.4
		s1.4-3.6-0.1-6.5c-0.9-1.8-1.2-1-2.2-3.7c-0.7-1.9-0.6-4.2-0.6-4.2s-0.9,2.1-0.5,4.7c0.5,2.5,0.8,2.3,0.4,3.9
		c-0.5,1.8-1.9,3.5-1.9,3.5s1.2-2,0.5-4.4c-0.8-2.6-1.3-2-1.2-4.5c0.1-3.4,2.6-5.2,2.6-5.2s-1.9,0-3.1,2.7c-1.1,2.7-0.8,3.9-0.8,3.9
		s-1.4-2.6,0.3-5.2c1.7-2.6,2.1-1.6,4.3-4.7c2.3-3.1,4.2-4.3,4.5-7.7c0.3-3.4-0.1-6.4-1.6-6.7c-3.4-0.8-4.9,2.3-4.9,2.3
		s2.6-1.7,4.5-0.5C101.1,83.2,100.3,87.6,100.3,87.6"/>
	<path class="st3" d="M104,86.7c0,0-0.5,2-1.9,5.2c-0.9,2.2-2.1,4.6-1,7.2c0.7,1.4,1.4,1.7,2.4,4.1c1,2.5-0.2,4.2-0.2,4.2
		s1.8-1.8,1.3-3.8s-2.3-4.2-2.7-5.3c-0.7-1.9,0.3-4.7,0.9-6.2C104,89,104,86.7,104,86.7"/>
	<path class="st0" d="M63.2,27.2c0,0,0.8-0.6,2-0.6c1.1,0,2.6,0.7,2.6,0.7s0.1,1-0.1,1.6c-0.2,0.5-0.2,0.9-0.2,0.9L66.1,30
		c0,0,0-0.8-0.9-1.6C64.3,27.5,63.2,27.2,63.2,27.2"/>
	<path class="st0" d="M60.3,28.2c0,0,1.2-0.5,2.9,0.2s1.4,2.3,1.4,2.3s-0.2,0.3-0.9,0.8C63,32,62.9,32,62.9,32s-0.5-0.5-1.2-0.6
		c-0.7-0.2-2.2-0.1-0.8-0.4c0.8-0.2,2.3,0.4,2.3-0.1s-0.4-1.4-1-1.8C61.6,28.7,60.3,28.2,60.3,28.2"/>
	<path class="st0" d="M72,30.2c0,0,0.7-0.7,1.6-1.1c0.8-0.4,2.8-0.6,2.8-0.6s-1.2,0.5-2.1,1.7c-0.8,1.2-1,1.9-1,1.9l-0.5-0.3
		L72,30.2"/>
	<path class="st0" d="M74.9,32.7c0,0,2.5-1.2,3.6-1.4c1.1-0.2,1.3-0.3,2.3,0c0.9,0.3,1,0-0.6,0.6c-1.6,0.6-2.7,2.4-2.7,2.4
		s-0.6-0.6-1.1-1C75.8,32.9,74.9,32.7,74.9,32.7"/>
	<path class="st3" d="M78.6,35.3c0,0,0.5,0.5,2.2,0.4s1.8-0.7,3.5-0.2s2.4,1.8,2.4,1.8l-1.8,0.1c0,0-1-0.6-1.7-0.7
		c-0.7-0.1-1.8,0.1-1.8,0.1s1.1,0.1,2.1,0.9c1,0.8,0.8,1.2,2,2c1.1,0.8,2,0.6,2.7,1.9c0.6,1.2,1.7,3.3,1.7,3.3s-1.3-0.7-2.4-0.6
		c-1.1,0.1-1.5,0.6-2.2,0.3c-0.6-0.3-1.4-0.9-1.4-0.9l-0.3-2.1c0,0,1,0.8,1.8,0.8c0.3,0,0.8-0.1,0.8-0.1s-1.6-0.5-1.9-1.3
		c-0.2-0.7-1.8-1.6-1.8-1.6s-1.3-2.3-1.9-2.7C80,36.2,78.6,35.3,78.6,35.3"/>
	<path class="st3" d="M89.7,49.6c0,0-1.4-1.7-2.2-2.7c-0.8-0.9-0.9-1-0.9-1s-0.5,0.3-1,0.1s-1.9-0.9-1.9-0.9s0.3,1.1,0.3,1.7
		c0,0.6-0.1,1.1-0.1,1.1s0.9-0.4,1.7,0c0.7,0.4,0.8-0.3,1.6,0C88,48.2,89.7,49.6,89.7,49.6"/>
	<path class="st3" d="M83.9,49.2c0,0,0.5-0.4,0.9-0.2s0.8,0.5,0.8,0.5s-0.5,1.3,0.5,2.5c1,1.1,2.9,2.6,3.1,4.8
		c0.2,2.3-0.4,3.8-0.4,3.8s0.6-2-1.5-4.5c-1.3-1.5-0.7-0.7-2.6-1.1c-1.6-0.3-1.7-1.8-1.7-1.8s0.2-0.4,0.3-0.9
		c0.1-0.4,2.6,2.8,0.2-1.1c-0.1-0.2,0-0.5,0.1-0.7C83.8,49.8,83.9,49.2,83.9,49.2"/>
	<path class="st3" d="M79.7,60c0,0,3.2-2.3,4.9-0.4c1.7,1.9,0.4,2.5,0.2,5.1c-0.2,2.5,2.5,3.6,2.5,3.6s-1.1-0.9,0.2-4
		c0.7-1.6,0.5-7-3.4-7.3c-0.9-0.1-1.5-1.4-1.5-1.4S82,57.1,81.4,58C80.8,58.8,79.7,60,79.7,60"/>
	<path class="st3" d="M63.3,61.3c0,0,2.1-0.5,2.4-1c0.3-0.5,0.2-1.2,1.3-0.9c1.1,0.3,1,2,2.9,2.5c1.9,0.4,5.3-0.3,5.3-0.3
		s-3.6,2.2-5.4,2s-1.5-1.5-2.8-2.1C65.6,60.8,63.3,61.3,63.3,61.3"/>
	<path class="st0" d="M78.4,61c0,0-1.5,0.7-2.3,1.7c-1.5,2-0.4,0.7-1.7,2.4c-1.1,1.4-1.7,2-4.4,2.5c-0.9,0.2-4.6-0.5-4.6-0.5
		s1.7,1.6,5.5,1.3c3.5-0.3,4.9-1.4,4.9-1.4s-1.2,3.3-7.7,2.8c-1.7-0.1-3.1,0.7-3.1,0.7s0,1.3-1.1,2.7c-1.1,1.4-2.3,1.6-2.3,1.6
		s1.4,0.6,4-2c1-1,0.3-1.2,1.3-1.6c0.6-0.2,4.2,0,7.6-1c2.5-0.8,3.6-4,3.8-5.3c0.1-0.3-4,2.2-1.2-1.9C77.6,62.2,78.4,61,78.4,61"/>
	<path class="st0" d="M80.5,61.1c0.8-0.5,1.5-1,2.4-0.3c1.3,1-0.2,2,0.1,4c0.3,2,1.1,2.9,1.1,2.9s-1.6,1.1-2.4,1.9
		c-0.9,0.9-0.9,2.2-0.9,2.2s-0.8-1.4,0.8-3.1c0.8-0.9,1.4-2.5,0.8-4.1c-1.1-2.9-2.3-2.1-3.8-1.1C77.1,64.4,78.7,62.2,80.5,61.1"/>
	<path class="st0" d="M49.4,58.4c0,0-2.5-1.1-4-1.3c-1.4-0.2-3.1-1.3-3.9-2.1c-0.8-0.7-2-2-3.9-2.7c-1.7-0.6-1.7-0.2-5.5,1.6
		s-4.1,2-5.8,2.4c-2.7,0.7-3.5,2.4-2.2,2.3c2.5-0.2,3.4,1.4,3.8,0.5c1-1.9,2.5-2.5,4.6-3.2s3-1.4,3.9-0.9c0.8,0.4,0.3,0.7,1.5,1.3
		s0.6,0,1.6,1.2s2.2,4.4,5.8,5.3c3.5,0.9,3.1,0.6,3.1,0.6s-0.3-1.7,0.1-2.8C48.9,59.5,49.4,58.4,49.4,58.4"/>
	<path class="st0" d="M25,60c0,0-1.5-0.5-2.8,1.2c-1.3,1.6-1.6,3.8-1.1,3.9c0.7,0.1,3.1-1,3.1-1.5c0.1-1.4,0-2.1,0.2-2.6
		C24.8,60.4,25,60,25,60z"/>
	<path class="st0" d="M37.3,88.1c0.8,0.9,1.1,1.1,2,1.6s1.4,0.4,1.4,0.4s0.1-1,0.1-1.7c-0.1-1-0.6-1.7-0.6-1.7s-1.1-0.2-1.7-0.5
		c-0.5-0.2-0.6-1.1-0.6-1.1S36,86.6,37.3,88.1z"/>
	<path class="st0" d="M37.3,88.1c0.8,0.9,1.1,1.1,2,1.6s1.4,0.4,1.4,0.4s0.1-1,0.1-1.7c-0.1-1-0.6-1.7-0.6-1.7s-1.1-0.2-1.7-0.5
		c-0.5-0.2-0.6-1.1-0.6-1.1S36,86.6,37.3,88.1z"/>
	<path class="st0" d="M57.2,86.4c0,0,0.1,2.4,1.3,3.9c1.2,1.6,3.1,2.5,3.9,3.5c0.8,1,1.4,2.7,1.4,2.7s-1.3-0.3-1.7,1.4
		c-0.4,1.7,0.6,3,0.1,3.3s-2.2,0.6-4.5,2s-7.7,4.7-8.6,5.6s-1.8,1.9-1.8,1.9s-0.6-0.6-1.6-0.2s-1.1,1-1.1,1l-2.3-0.3
		c0,0,1.1-1.2,1.4-2.2c0.3-0.9,1.5-0.3,2.9-1.1c1.3-0.7,3-1.9,5.3-3.9c2.4-1.9,4.6-3.4,4.2-4.6c-0.4-1.2-3.1-2.1-4.4-5.4
		c-1.3-3.3-0.5-6.4,0.5-6.9C53.3,86.8,57.2,86.4,57.2,86.4"/>
	<path class="st0" d="M41.2,112.7c-0.4,0.5-0.5,1.3-0.7,2.3s-0.1,2.1-0.1,2.1s1.6-0.3,2.6-1.4s1-2.1,0.9-2.5s-0.5-0.7-0.5-0.7
		S41.6,112.2,41.2,112.7z"/>
	<path class="st0" d="M41.2,112.7c-0.4,0.5-0.5,1.3-0.7,2.3s-0.1,2.1-0.1,2.1s1.6-0.3,2.6-1.4s1-2.1,0.9-2.5s-0.5-0.7-0.5-0.7
		S41.6,112.2,41.2,112.7z"/>
	<path class="st0" d="M77.6,136c0,0,1.8-0.5,2.7-1.4c0.8-0.9,1.1-1.2,1.1-1.7s-0.1-2.4-0.1-2.4s-0.3,0.4-1.2,0.6
		c-0.9,0.2-1,0.4-1.5,1.2C78,133.1,77.6,136,77.6,136z"/>
	<path class="st0" d="M77.6,136c0,0,1.8-0.5,2.7-1.4c0.8-0.9,1.1-1.2,1.1-1.7s-0.1-2.4-0.1-2.4s-0.3,0.4-1.2,0.6
		c-0.9,0.2-1,0.4-1.5,1.2C78,133.1,77.6,136,77.6,136z"/>
</g>
<g id="Layer_3">
</g>
</svg>
